<svg viewBox="0 0 300 300" xmlns="http://www.w3.org/2000/svg"><rect x="0" y="0" width="300" height="300" fill="#F4EFE6"/><circle cx="220.0" cy="150.0" r="9" fill="#8B5E3C" stroke="#5c3f24" stroke-width="1"/><circle cx="216.6" cy="171.6" r="9" fill="#caa66b" stroke="#5c3f24" stroke-width="1"/><circle cx="206.6" cy="191.1" r="9" fill="#caa66b" stroke="#5c3f24" stroke-width="1"/><circle cx="191.1" cy="206.6" r="9" fill="#8B5E3C" stroke="#5c3f24" stroke-width="1"/><circle cx="171.6" cy="216.6" r="9" fill="#caa66b" stroke="#5c3f24" stroke-width="1"/><circle cx="150.0" cy="220.0" r="9" fill="#caa66b" stroke="#5c3f24" stroke-width="1"/><circle cx="128.4" cy="216.6" r="9" fill="#8B5E3C" stroke="#5c3f24" stroke-width="1"/><circle cx="108.9" cy="206.6" r="9" fill="#caa66b" stroke="#5c3f24" stroke-width="1"/><circle cx="93.4" cy="191.1" r="9" fill="#caa66b" stroke="#5c3f24" stroke-width="1"/><circle cx="83.4" cy="171.6" r="9" fill="#8B5E3C" stroke="#5c3f24" stroke-width="1"/><circle cx="80.0" cy="150.0" r="9" fill="#caa66b" stroke="#5c3f24" stroke-width="1"/><circle cx="83.4" cy="128.4" r="9" fill="#caa66b" stroke="#5c3f24" stroke-width="1"/><circle cx="93.4" cy="108.9" r="9" fill="#8B5E3C" stroke="#5c3f24" stroke-width="1"/><circle cx="108.9" cy="93.4" r="9" fill="#caa66b" stroke="#5c3f24" stroke-width="1"/><circle cx="128.4" cy="83.4" r="9" fill="#caa66b" stroke="#5c3f24" stroke-width="1"/><circle cx="150.0" cy="80.0" r="9" fill="#8B5E3C" stroke="#5c3f24" stroke-width="1"/><circle cx="171.6" cy="83.4" r="9" fill="#caa66b" stroke="#5c3f24" stroke-width="1"/><circle cx="191.1" cy="93.4" r="9" fill="#caa66b" stroke="#5c3f24" stroke-width="1"/><circle cx="206.6" cy="108.9" r="9" fill="#8B5E3C" stroke="#5c3f24" stroke-width="1"/><circle cx="216.6" cy="128.4" r="9" fill="#caa66b" stroke="#5c3f24" stroke-width="1"/><ellipse cx="161.0" cy="220.0" rx="10.0" ry="14.4" fill="#8B1E1E" stroke="#5c2a2a" stroke-width="0.7" transform="rotate(90.0 161.0 220.0)"/><ellipse cx="155.5" cy="229.5" rx="10.0" ry="14.4" fill="#8B1E1E" stroke="#5c2a2a" stroke-width="0.7" transform="rotate(150.0 155.5 229.5)"/><ellipse cx="144.5" cy="229.5" rx="10.0" ry="14.4" fill="#8B1E1E" stroke="#5c2a2a" stroke-width="0.7" transform="rotate(210.0 144.5 229.5)"/><ellipse cx="139.0" cy="220.0" rx="10.0" ry="14.4" fill="#8B1E1E" stroke="#5c2a2a" stroke-width="0.7" transform="rotate(270.0 139.0 220.0)"/><ellipse cx="144.5" cy="210.5" rx="10.0" ry="14.4" fill="#8B1E1E" stroke="#5c2a2a" stroke-width="0.7" transform="rotate(330.0 144.5 210.5)"/><ellipse cx="155.5" cy="210.5" rx="10.0" ry="14.4" fill="#8B1E1E" stroke="#5c2a2a" stroke-width="0.7" transform="rotate(390.0 155.5 210.5)"/><ellipse cx="156.4" cy="222.3" rx="6.2" ry="8.9" fill="#D9605C" stroke="#5c2a2a" stroke-width="0.7" transform="rotate(110.0 156.4 222.3)"/><ellipse cx="149.8" cy="226.8" rx="6.2" ry="8.9" fill="#D9605C" stroke="#5c2a2a" stroke-width="0.7" transform="rotate(182.0 149.8 226.8)"/><ellipse cx="143.4" cy="221.9" rx="6.2" ry="8.9" fill="#D9605C" stroke="#5c2a2a" stroke-width="0.7" transform="rotate(254.0 143.4 221.9)"/><ellipse cx="146.2" cy="214.3" rx="6.2" ry="8.9" fill="#D9605C" stroke="#5c2a2a" stroke-width="0.7" transform="rotate(326.0 146.2 214.3)"/><ellipse cx="154.2" cy="214.6" rx="6.2" ry="8.9" fill="#D9605C" stroke="#5c2a2a" stroke-width="0.7" transform="rotate(398.0 154.2 214.6)"/><circle cx="150" cy="220" r="4.4" fill="#8B1E1E"/></svg>