<svg viewBox="0 0 300 300" xmlns="http://www.w3.org/2000/svg"><rect x="0" y="0" width="300" height="300" fill="#F4EFE6"/><circle cx="150" cy="70" r="22" fill="none" stroke="#8a8a8a" stroke-width="6"/><path d="M150 92 L150 120" stroke="#8a8a8a" stroke-width="4"/><ellipse cx="188.0" cy="175.0" rx="23.6" ry="36.1" fill="#F4B31C" stroke="#B9791A" stroke-width="1" transform="rotate(90.0 188.0 175.0)"/>
<ellipse cx="184.2" cy="191.5" rx="23.6" ry="36.1" fill="#F4B31C" stroke="#B9791A" stroke-width="1" transform="rotate(115.7 184.2 191.5)"/>
<ellipse cx="173.7" cy="204.7" rx="23.6" ry="36.1" fill="#F4B31C" stroke="#B9791A" stroke-width="1" transform="rotate(141.4 173.7 204.7)"/>
<ellipse cx="158.5" cy="212.0" rx="23.6" ry="36.1" fill="#F4B31C" stroke="#B9791A" stroke-width="1" transform="rotate(167.1 158.5 212.0)"/>
<ellipse cx="141.5" cy="212.0" rx="23.6" ry="36.1" fill="#F4B31C" stroke="#B9791A" stroke-width="1" transform="rotate(192.9 141.5 212.0)"/>
<ellipse cx="126.3" cy="204.7" rx="23.6" ry="36.1" fill="#F4B31C" stroke="#B9791A" stroke-width="1" transform="rotate(218.6 126.3 204.7)"/>
<ellipse cx="115.8" cy="191.5" rx="23.6" ry="36.1" fill="#F4B31C" stroke="#B9791A" stroke-width="1" transform="rotate(244.3 115.8 191.5)"/>
<ellipse cx="112.0" cy="175.0" rx="23.6" ry="36.1" fill="#F4B31C" stroke="#B9791A" stroke-width="1" transform="rotate(270.0 112.0 175.0)"/>
<ellipse cx="115.8" cy="158.5" rx="23.6" ry="36.1" fill="#F4B31C" stroke="#B9791A" stroke-width="1" transform="rotate(295.7 115.8 158.5)"/>
<ellipse cx="126.3" cy="145.3" rx="23.6" ry="36.1" fill="#F4B31C" stroke="#B9791A" stroke-width="1" transform="rotate(321.4 126.3 145.3)"/>
<ellipse cx="141.5" cy="138.0" rx="23.6" ry="36.1" fill="#F4B31C" stroke="#B9791A" stroke-width="1" transform="rotate(347.1 141.5 138.0)"/>
<ellipse cx="158.5" cy="138.0" rx="23.6" ry="36.1" fill="#F4B31C" stroke="#B9791A" stroke-width="1" transform="rotate(372.9 158.5 138.0)"/>
<ellipse cx="173.7" cy="145.3" rx="23.6" ry="36.1" fill="#F4B31C" stroke="#B9791A" stroke-width="1" transform="rotate(398.6 173.7 145.3)"/>
<ellipse cx="184.2" cy="158.5" rx="23.6" ry="36.1" fill="#F4B31C" stroke="#B9791A" stroke-width="1" transform="rotate(424.3 184.2 158.5)"/>
<circle cx="150" cy="175" r="15" fill="#7A4B23" stroke="#B9791A" stroke-width="1"/></svg>