<svg viewBox="0 0 400 400" xmlns="http://www.w3.org/2000/svg">
  <defs>
    <clipPath id="circleClip"><circle cx="200" cy="200" r="185"/></clipPath>
  </defs>
  <circle cx="200" cy="200" r="192" fill="#8B5E3C"/>
  <circle cx="200" cy="200" r="185" fill="#F7F1E6"/>
  <g clip-path="url(#circleClip)">
    <path d="M20 60 Q140 20 220 90 Q120 140 20 180 Z" fill="#8FA07A" opacity="0.55"/>
    <path d="M260 320 Q340 280 400 340 L400 400 L280 400 Q250 350 260 320 Z" fill="#C7A97A" opacity="0.5"/>
    <path d="M300 260 Q370 230 400 270 L400 340 Q340 300 300 260 Z" fill="#8FA07A" opacity="0.45"/>
  </g>
  <circle cx="200" cy="200" r="185" fill="none" stroke="#8B5E3C" stroke-width="2"/>
  <circle cx="200" cy="200" r="170" fill="none" stroke="#8B5E3C" stroke-width="1"/>
  <!-- yarn ball + hook -->
  <g transform="translate(200,120)">
    <circle cx="0" cy="0" r="26" fill="none" stroke="#8B5E3C" stroke-width="2.2"/>
    <path d="M-20 -10 Q0 5 20 -10 M-22 2 Q0 15 22 2 M-18 14 Q0 24 18 14 M-14 -20 Q0 -8 14 -20" stroke="#8B5E3C" stroke-width="1.4" fill="none"/>
    <path d="M18 14 Q40 30 48 55" stroke="#8B5E3C" stroke-width="2.2" fill="none" stroke-linecap="round"/>
    <path d="M44 50 q10 -6 8 6" stroke="#8B5E3C" stroke-width="2.2" fill="none" stroke-linecap="round"/>
    <path d="M-30 -35 Q-45 -55 -70 -50 M-70 -50 q-6 8 -14 6 M-70 -50 q6 10 -4 16" stroke="#7a8a5a" stroke-width="2" fill="none" stroke-linecap="round"/>
    <ellipse cx="-58" cy="-58" rx="7" ry="4" fill="#8FA07A" transform="rotate(-30 -58 -58)"/>
    <ellipse cx="-72" cy="-46" rx="7" ry="4" fill="#8FA07A" transform="rotate(20 -72 -46)"/>
  </g>
  <text x="200" y="248" font-family="Georgia, 'Times New Roman', serif" font-size="52" fill="#6b4a30" text-anchor="middle">Blush &amp; Bloom</text>
  <line x1="95" y1="270" x2="155" y2="270" stroke="#6b4a30" stroke-width="1"/>
  <circle cx="80" cy="270" r="2" fill="#6b4a30"/>
  <text x="200" y="277" font-family="Georgia, serif" font-size="17" letter-spacing="4" fill="#6b4a30" text-anchor="middle">MERA CROCHET</text>
  <line x1="245" y1="270" x2="305" y2="270" stroke="#6b4a30" stroke-width="1"/>
  <circle cx="320" cy="270" r="2" fill="#6b4a30"/>
  <g transform="translate(200,310)">
    <path d="M-60 0 Q-30 -10 0 0 Q30 8 60 -2" stroke="#7a8a5a" stroke-width="1.5" fill="none"/>
    <ellipse cx="-40" cy="-4" rx="8" ry="4" fill="#8FA07A" transform="rotate(-20 -40 -4)"/>
    <ellipse cx="-15" cy="-7" rx="8" ry="4" fill="#8FA07A" transform="rotate(10 -15 -7)"/>
    <ellipse cx="15" cy="2" rx="8" ry="4" fill="#8FA07A" transform="rotate(-10 15 2)"/>
    <ellipse cx="40" cy="-2" rx="8" ry="4" fill="#8FA07A" transform="rotate(15 40 -2)"/>
    <circle cx="0" cy="6" r="2.5" fill="#8B5E3C"/>
    <circle cx="25" cy="-4" r="2" fill="#8B5E3C"/>
  </g>
</svg>